<svg xmlns="http://www.w3.org/2000/svg" xmlns:xlink="http://www.w3.org/1999/xlink" viewBox="-60 -60 60 75" version="1.1"
     x="0px" y="0px" width="70" height="60" >
 
    <g stroke="white" stroke-width="1" fill="red" fill-rule="evenodd" transform="rotate(180)">
        <g transform="translate(-146.000000, -502.000000)">
            <g transform="translate(147.000000, 502.000000)">
                <path d="M12,36 L12,53 L12,54 C12,54.552 12.448,55 13,55 L17,55 C17.552,55 18,54.552 18,54 L18,53 L18,36 C18,34.343 16.657,33 15,33 L15,33 C13.343,33 12,34.343 12,36 L12,36 Z"
                      stroke="#000000" stroke-width="2" stroke-linecap="round"/>
                <path d="M18,39 L12,39" stroke="#000000" stroke-width="2" stroke-linecap="round"/>
                <path d="M15,55 L15,59" stroke="#000000" stroke-width="2" stroke-linecap="round"/>
                <path d="M16,43 C16,43.552 15.552,44 15,44 C14.448,44 14,43.552 14,43 C14,42.448 14.448,42 15,42 C15.552,42 16,42.448 16,43"
                      fill="#000000"/>
                <path d="M16,47 C16,47.552 15.552,48 15,48 C14.448,48 14,47.552 14,47 C14,46.448 14.448,46 15,46 C15.552,46 16,46.448 16,47"
                      fill="#000000"/>
                <path d="M16,51 C16,51.552 15.552,52 15,52 C14.448,52 14,51.552 14,51 C14,50.448 14.448,50 15,50 C15.552,50 16,50.448 16,51"
                      fill="#000000"/>
                <path d="M30,29 C30,29.552 29.552,30 29,30 C28.448,30 28,29.552 28,29 C28,28.448 28.448,28 29,28 C29.552,28 30,28.448 30,29"
                      fill="#000000"/>
                <path d="M30,33 C30,33.552 29.552,34 29,34 C28.448,34 28,33.552 28,33 C28,32.448 28.448,32 29,32 C29.552,32 30,32.448 30,33"
                      fill="#000000"/>
                <path d="M30,37 C30,37.552 29.552,38 29,38 C28.448,38 28,37.552 28,37 C28,36.448 28.448,36 29,36 C29.552,36 30,36.448 30,37"
                      fill="#000000"/>
                <path d="M40,36 L40,53 L40,54 C40,54.552 40.448,55 41,55 L45,55 C45.552,55 46,54.552 46,54 L46,53 L46,36 C46,34.343 44.657,33 43,33 L43,33 C41.343,33 40,34.343 40,36 L40,36 Z"
                      stroke="#000000" stroke-width="2" stroke-linecap="round"/>
                <path d="M46,39 L40,39" stroke="#000000" stroke-width="2" stroke-linecap="round"/>
                <path d="M43,55 L43,59" stroke="#000000" stroke-width="2" stroke-linecap="round"/>
                <path d="M44,43 C44,43.552 43.552,44 43,44 C42.448,44 42,43.552 42,43 C42,42.448 42.448,42 43,42 C43.552,42 44,42.448 44,43"
                      fill="#000000"/>
                <path d="M44,47 C44,47.552 43.552,48 43,48 C42.448,48 42,47.552 42,47 C42,46.448 42.448,46 43,46 C43.552,46 44,46.448 44,47"
                      fill="#000000"/>
                <path d="M44,51 C44,51.552 43.552,52 43,52 C42.448,52 42,51.552 42,51 C42,50.448 42.448,50 43,50 C43.552,50 44,50.448 44,51"
                      fill="#000000"/>
                <path d="M33.2778,53 L24.7228,53 C23.7858,53 23.0418,52.215 23.0908,51.28 L24.9998,14 L26.9998,12 L30.9998,12 L32.9998,14 L34.9098,51.28 C34.9588,52.215 34.2138,53 33.2778,53 L33.2778,53 Z"
                      stroke="#000000" stroke-width="2"/>
                <path d="M32.9569,4.3203 C31.1269,0.6963 28.9999,1.0003 28.9999,1.0003 C28.9999,1.0003 26.8729,0.6963 25.0429,4.3203 C23.7319,6.9163 2.6799,39.8133 0.2319,43.6383 C0.0789,43.8773 -0.0001,44.1513 -0.0001,44.4353 L-0.0001,52.1733 C-0.0001,53.1163 0.8659,53.8213 1.7889,53.6303 L11.9999,51.5173 L11.9999,36.1693 C11.9999,34.5453 13.2169,33.0893 14.8389,33.0043 C16.5689,32.9133 17.9999,34.2893 17.9999,36.0003 L17.9999,50.2763 L23.1999,49.2003 L24.9999,14.0003 L26.9999,12.0003 L30.9999,12.0003 L32.9999,14.0003 L34.7999,49.2003 L39.9999,50.2763 L39.9999,36.1693 C39.9999,34.5453 41.2169,33.0893 42.8389,33.0043 C44.5689,32.9133 45.9999,34.2893 45.9999,36.0003 L45.9999,51.5173 L56.2109,53.6303 C57.1339,53.8213 57.9999,53.1163 57.9999,52.1733 L57.9999,44.4353 C57.9999,44.1513 57.9219,43.8773 57.7679,43.6383 C55.3199,39.8133 34.2679,6.9163 32.9569,4.3203 L32.9569,4.3203 Z"
                      stroke="#000000" stroke-width="2"/>
                <path d="M29,44 L29,59" stroke="#000000" stroke-width="2" stroke-linecap="round"/>
                <path d="M29,12 L29,21" stroke="#000000" stroke-width="2" stroke-linecap="round"/>
                <polygon stroke="#000000" stroke-width="2"
                         points="33.3585 21 32.9995 14 30.9995 12 26.9995 12 24.9995 14 24.6415 21"/>
            </g>
        </g>
    </g>
   
</svg>